<!DOCTYPE svg PUBLIC "-//W3C//DTD SVG 1.1//EN" "http://www.w3.org/Graphics/SVG/1.1/DTD/svg11.dtd">
<!-- Uploaded to: SVG Repo, www.svgrepo.com, Transformed by: SVG Repo Mixer Tools -->
<svg fill="#105edc" version="1.1" id="Capa_1" xmlns="http://www.w3.org/2000/svg" xmlns:xlink="http://www.w3.org/1999/xlink" width="800px" height="800px" viewBox="-4.55 -4.55 54.59 54.59" xml:space="preserve">
<g id="SVGRepo_bgCarrier" stroke-width="0" transform="translate(8.871525,8.871525), scale(0.61)">
<rect x="-4.55" y="-4.55" width="54.59" height="54.59" rx="0" fill="#ffffff" strokewidth="0"/>
</g>
<g id="SVGRepo_tracerCarrier" stroke-linecap="round" stroke-linejoin="round"/>
<g id="SVGRepo_iconCarrier"> <g> <path d="M40.022,6.393C40.022,2.862,37.161,0,33.629,0H11.864C8.333,0,5.471,2.862,5.471,6.393v32.708 c0,3.53,2.861,6.393,6.393,6.393h21.765c3.531,0,6.394-2.862,6.394-6.393L40.022,6.393L40.022,6.393z M20.373,32.092H14.36 c-1.365,0-2.473-1.094-2.473-2.459s1.107-2.459,2.473-2.459h6.013c1.365,0,2.473,1.094,2.473,2.459 C22.846,30.999,21.738,32.092,20.373,32.092z M28.39,22.255H14.36c-1.365,0-2.473-1.093-2.473-2.459 c0-1.366,1.107-2.459,2.473-2.459h14.029c1.365,0,2.472,1.093,2.472,2.459C30.861,21.162,29.754,22.255,28.39,22.255z M31.061,12.419H14.36c-1.365,0-2.473-1.155-2.473-2.521s1.107-2.521,2.473-2.521h16.701c1.365,0,2.473,1.155,2.473,2.521 S32.427,12.419,31.061,12.419z"/> </g> </g>
</svg>